<svg width="31" height="31" viewBox="0 0 31 31" fill="none" xmlns="http://www.w3.org/2000/svg">
<path fill-rule="evenodd" clip-rule="evenodd" d="M9.06553 0.0925483C10.7104 0.016827 11.2348 0 15.4247 0C19.6146 0 20.1391 0.0182292 21.7825 0.0925483C23.426 0.166867 24.5478 0.429088 25.5293 0.809097C26.5572 1.19752 27.4897 1.80469 28.2609 2.58995C29.0462 3.35979 29.6519 4.29088 30.039 5.32013C30.4204 6.3017 30.6812 7.4235 30.7569 9.06413C30.8326 10.7118 30.8495 11.2362 30.8495 15.4247C30.8495 19.6146 30.8312 20.1391 30.7569 21.7839C30.6826 23.4246 30.4204 24.5463 30.039 25.5279C29.6519 26.5573 29.0452 27.4899 28.2609 28.2609C27.4897 29.0462 26.5572 29.6519 25.5293 30.039C24.5478 30.4204 23.426 30.6812 21.7853 30.7569C20.1391 30.8326 19.6146 30.8495 15.4247 30.8495C11.2348 30.8495 10.7104 30.8312 9.06553 30.7569C7.4249 30.6826 6.3031 30.4204 5.32153 30.039C4.29217 29.6519 3.35953 29.0451 2.58855 28.2609C1.80382 27.4906 1.19656 26.5584 0.809097 25.5293C0.429088 24.5478 0.16827 23.426 0.0925483 21.7853C0.016827 20.1377 0 19.6132 0 15.4247C0 11.2348 0.0182292 10.7104 0.0925483 9.06694C0.166867 7.4235 0.429088 6.3017 0.809097 5.32013C1.19713 4.29099 1.80486 3.35882 2.58995 2.58855C3.35984 1.80399 4.29154 1.19674 5.32013 0.809097C6.3017 0.429088 7.4235 0.16827 9.06413 0.0925483H9.06553ZM21.6577 2.869C20.0311 2.79468 19.5431 2.77926 15.4247 2.77926C11.3063 2.77926 10.8183 2.79468 9.19173 2.869C7.68712 2.93771 6.87102 3.18871 6.32694 3.40045C5.60759 3.6809 5.09296 4.01323 4.5531 4.5531C4.04134 5.05097 3.6475 5.65706 3.40045 6.32694C3.18871 6.87102 2.93771 7.68712 2.869 9.19173C2.79468 10.8183 2.77926 11.3063 2.77926 15.4247C2.77926 19.5431 2.79468 20.0311 2.869 21.6577C2.93771 23.1623 3.18871 23.9784 3.40045 24.5225C3.64725 25.1914 4.04128 25.7986 4.5531 26.2964C5.0509 26.8082 5.65807 27.2022 6.32694 27.449C6.87102 27.6607 7.68712 27.9117 9.19173 27.9805C10.8183 28.0548 11.3049 28.0702 15.4247 28.0702C19.5445 28.0702 20.0311 28.0548 21.6577 27.9805C23.1623 27.9117 23.9784 27.6607 24.5225 27.449C25.2419 27.1686 25.7565 26.8362 26.2964 26.2964C26.8082 25.7986 27.2022 25.1914 27.449 24.5225C27.6607 23.9784 27.9117 23.1623 27.9805 21.6577C28.0548 20.0311 28.0702 19.5431 28.0702 15.4247C28.0702 11.3063 28.0548 10.8183 27.9805 9.19173C27.9117 7.68712 27.6607 6.87102 27.449 6.32694C27.1686 5.60759 26.8362 5.09296 26.2964 4.5531C25.7985 4.04138 25.1924 3.64754 24.5225 3.40045C23.9784 3.18871 23.1623 2.93771 21.6577 2.869ZM13.4546 20.1797C14.5549 20.6378 15.78 20.6996 16.9208 20.3546C18.0616 20.0097 19.0473 19.2794 19.7094 18.2885C20.3716 17.2975 20.6692 16.1074 20.5514 14.9215C20.4336 13.7355 19.9077 12.6272 19.0636 11.7859C18.5254 11.2481 17.8748 10.8363 17.1584 10.5802C16.442 10.324 15.6777 10.2299 14.9206 10.3046C14.1635 10.3793 13.4323 10.6209 12.7798 11.012C12.1273 11.4032 11.5696 11.9342 11.1469 12.5667C10.7242 13.1993 10.447 13.9177 10.3353 14.6703C10.2236 15.4228 10.2801 16.1908 10.5008 16.9188C10.7215 17.6469 11.1009 18.317 11.6116 18.8809C12.1224 19.4447 12.7518 19.8883 13.4546 20.1797ZM9.81854 9.81854C10.5548 9.08232 11.4288 8.49833 12.3907 8.09989C13.3526 7.70145 14.3836 7.49638 15.4247 7.49638C16.4659 7.49638 17.4969 7.70145 18.4588 8.09989C19.4207 8.49833 20.2947 9.08232 21.0309 9.81854C21.7671 10.5548 22.3511 11.4288 22.7496 12.3907C23.148 13.3526 23.3531 14.3836 23.3531 15.4247C23.3531 16.4659 23.148 17.4969 22.7496 18.4588C22.3511 19.4207 21.7671 20.2947 21.0309 21.0309C19.5441 22.5178 17.5275 23.3531 15.4247 23.3531C13.322 23.3531 11.3054 22.5178 9.81854 21.0309C8.33169 19.5441 7.49638 17.5275 7.49638 15.4247C7.49638 13.322 8.33169 11.3054 9.81854 9.81854ZM25.1115 8.67711C25.2939 8.50501 25.4399 8.29806 25.541 8.0685C25.642 7.83894 25.6959 7.59145 25.6996 7.34067C25.7032 7.08989 25.6565 6.84093 25.5623 6.60853C25.468 6.37612 25.328 6.165 25.1507 5.98765C24.9733 5.81031 24.7622 5.67035 24.5298 5.57606C24.2974 5.48178 24.0484 5.43508 23.7976 5.43874C23.5469 5.44239 23.2994 5.49633 23.0698 5.59735C22.8403 5.69837 22.6333 5.84442 22.4612 6.02686C22.1265 6.38167 21.9433 6.85296 21.9504 7.34067C21.9575 7.82838 22.1544 8.29413 22.4993 8.63903C22.8442 8.98393 23.3099 9.18084 23.7976 9.18795C24.2854 9.19506 24.7566 9.01181 25.1115 8.67711Z" fill="#F8F8F8"/>
</svg>
